
        <svg xmlns="http://www.w3.org/2000/svg" xmlns:xlink="http://www.w3.org/1999/xlink" version="1.1" width="3250" 
        height="2901.7123717319328" viewBox="0 0 3250 2901.7123717319328">
			<rect fill="#15112b" width="3250" height="2901.7123717319328"/>
			<g transform="scale(12.5) translate(10, 10)">
				<defs id="SvgjsDefs1153"></defs><g id="SvgjsG1154" featureKey="phAakL-0" transform="matrix(2.314814814814815,0,0,2.314814814814815,58,0)" fill="#f48599"><title xmlns="http://www.w3.org/2000/svg">arrows-105</title><desc xmlns="http://www.w3.org/2000/svg">Created with Sketch.</desc><g xmlns="http://www.w3.org/2000/svg" stroke="none" stroke-width="1" fill="none" fill-rule="evenodd" xmlns:sketch="http://www.bohemiancoding.com/sketch/ns" sketch:type="MSPage"><g sketch:type="MSLayerGroup" fill="#f48599"><path d="M27,54 C12.112,54 0,41.888 0,27 C0,12.112 12.112,0 27,0 C41.888,0 54,12.112 54,27 C54,41.888 41.888,54 27,54 L27,54 Z M27,2 C13.215,2 2,13.215 2,27 C2,40.785 13.215,52 27,52 C40.785,52 52,40.785 52,27 C52,13.215 40.785,2 27,2 L27,2 Z" sketch:type="MSShapeGroup"></path><path d="M17.929,40.068 L17.929,40.068 C16.858,40.067 15.854,39.653 15.101,38.899 C14.348,38.146 13.933,37.142 13.933,36.071 C13.933,35 14.348,33.996 15.101,33.242 L33.242,15.101 C33.995,14.347 35,13.932 36.071,13.932 C37.142,13.932 38.146,14.347 38.899,15.101 C39.652,15.854 40.067,16.858 40.067,17.929 C40.067,19 39.652,20.004 38.899,20.758 L20.757,38.899 C20.004,39.653 19,40.068 17.929,40.068 L17.929,40.068 Z M36.071,15.932 C35.534,15.932 35.032,16.139 34.656,16.515 L16.515,34.657 C16.14,35.032 15.933,35.534 15.933,36.071 C15.933,36.607 16.14,37.11 16.515,37.485 C17.268,38.237 18.593,38.235 19.343,37.486 L37.485,19.343 C37.861,18.968 38.067,18.466 38.067,17.929 C38.067,17.393 37.86,16.89 37.485,16.515 C37.109,16.139 36.607,15.932 36.071,15.932 L36.071,15.932 Z" sketch:type="MSShapeGroup"></path></g></g></g><g id="SvgjsG1155" featureKey="fNbRbf-0" transform="matrix(3.323179118573593,0,0,3.323179118573593,-0.9969512001876185,127.4536135567007)" fill="#ffffff"><path d="M0.3 18.82 q0.06 -0.66 0.41 -1.32 t0.83 -1.08 q2.14 1.3 4.06 1.3 q0.84 0 1.23 -0.38 t0.39 -0.94 q0 -0.94 -1.26 -1.48 l-2.36 -1 q-1.38 -0.62 -2.12 -1.49 t-0.74 -2.21 q0 -0.92 0.37 -1.68 t1.04 -1.32 t1.59 -0.87 t2.04 -0.31 q2.24 0 4.52 1.14 q-0.1 1.54 -1.08 2.4 q-2.04 -0.98 -3.6 -0.98 q-0.8 0 -1.2 0.36 t-0.4 0.82 q0 0.78 1.18 1.26 l2.4 1.02 q1.52 0.64 2.27 1.64 t0.75 2.32 q0 0.94 -0.34 1.72 t-1.01 1.35 t-1.67 0.89 t-2.34 0.32 q-2.6 0 -4.96 -1.48 z M16.240000000000002 17.72 l0.54 0 q0.24 0.66 0.24 1.32 t-0.06 0.86 q-1.2 0.2 -2.14 0.2 q-1.36 0 -1.93 -0.67 t-0.57 -2.11 l0 -11.9 l0.12 -0.14 l1.22 0 q0.94 0 1.32 0.42 t0.38 1.46 l0 9.62 q0 0.94 0.88 0.94 z M27.08 18.56 q-0.1 0.42 -0.38 0.9 t-0.58 0.7 q-1.4 -0.04 -2.16 -1.06 q-1.3 1.2 -2.82 1.2 q-0.78 0 -1.36 -0.25 t-0.98 -0.67 t-0.6 -0.97 t-0.2 -1.15 q0 -0.86 0.31 -1.51 t0.85 -1.08 t1.26 -0.65 t1.54 -0.22 q0.46 0 0.81 0.01 t0.61 0.03 l0 -0.38 q0 -1.26 -1.3 -1.26 q-0.84 0 -2.94 0.64 q-0.6 -0.7 -0.76 -2.18 q0.48 -0.18 1.07 -0.34 t1.21 -0.28 t1.22 -0.19 t1.08 -0.07 q0.7 0 1.35 0.2 t1.14 0.61 t0.78 1.06 t0.29 1.55 l0 4.06 q0 0.92 0.56 1.3 z M21.04 17.06 q0 0.94 1.08 0.94 q0.56 0 1.26 -0.58 l0 -1.6 q-0.4 -0.02 -0.67 -0.03 t-0.41 -0.01 q-1.26 0 -1.26 1.28 z M28.059999999999995 19.32 q0.02 -0.52 0.27 -1.14 t0.59 -0.98 q1.6 0.84 2.78 0.84 q0.56 0 0.86 -0.19 t0.3 -0.51 q0 -0.6 -0.92 -0.9 l-1.1 -0.42 q-2.5 -0.92 -2.5 -3 q0 -1.52 1.05 -2.41 t2.83 -0.89 q0.88 0 1.94 0.25 t1.74 0.59 q0.04 0.56 -0.22 1.23 t-0.64 0.95 q-1.68 -0.76 -2.8 -0.76 q-0.4 0 -0.61 0.18 t-0.21 0.46 q0 0.48 0.76 0.76 l1.24 0.44 q2.66 0.94 2.66 3.22 q0 1.5 -1.1 2.38 t-3.14 0.88 t-3.78 -0.98 z M46.239999999999995 13.4 l0 4.1 q0 1.34 0.5 1.98 q-0.76 0.68 -1.84 0.68 q-1.04 0 -1.42 -0.48 t-0.38 -1.46 l0 -4.26 q0 -0.68 -0.18 -1 t-0.7 -0.32 q-0.3 0 -0.68 0.16 t-0.78 0.52 l0 6.68 q-0.66 0.12 -1.52 0.12 t-1.52 -0.12 l0 -14.58 l0.14 -0.14 l1.2 0 q0.96 0 1.33 0.42 t0.37 1.46 l0 3.78 q1.34 -1.1 2.68 -1.1 t2.07 0.97 t0.73 2.59 z M52.17999999999999 12.32 l0 7.68 q-0.34 0.06 -0.74 0.09 t-0.82 0.03 t-0.83 -0.03 t-0.75 -0.09 l0 -6.62 q0 -1.16 -0.94 -1.16 l-0.3 0 q-0.12 -0.38 -0.12 -1.06 q0 -0.66 0.12 -1.12 q0.52 -0.04 0.96 -0.07 t0.8 -0.03 l0.44 0 q1.02 0 1.6 0.64 t0.58 1.74 z M48.67999999999999 6 q0.58 -0.32 1.5 -0.32 q0.94 0 1.46 0.32 q0.24 0.54 0.24 1.16 t-0.24 1.16 q-0.58 0.3 -1.52 0.3 t-1.44 -0.3 q-0.24 -0.54 -0.24 -1.16 t0.24 -1.16 z M62.31999999999999 16.02 l-5.22 0 q0.04 0.9 0.46 1.4 t1.38 0.5 q0.48 0 1.11 -0.14 t1.45 -0.46 q0.66 0.68 0.82 1.84 q-1.6 1.14 -3.92 1.14 q-1.26 0 -2.11 -0.4 t-1.38 -1.12 t-0.75 -1.7 t-0.22 -2.14 q0 -1.12 0.27 -2.07 t0.82 -1.65 t1.4 -1.1 t1.99 -0.4 q0.96 0 1.73 0.32 t1.31 0.88 t0.83 1.34 t0.29 1.7 q0 1.22 -0.26 2.06 z M57.08 13.86 l2.64 0 l0 -0.22 q0 -0.74 -0.33 -1.22 t-0.99 -0.48 q-0.64 0 -0.95 0.45 t-0.37 1.47 z M72.25999999999999 16.02 l-5.22 0 q0.04 0.9 0.46 1.4 t1.38 0.5 q0.48 0 1.11 -0.14 t1.45 -0.46 q0.66 0.68 0.82 1.84 q-1.6 1.14 -3.92 1.14 q-1.26 0 -2.11 -0.4 t-1.38 -1.12 t-0.75 -1.7 t-0.22 -2.14 q0 -1.12 0.27 -2.07 t0.82 -1.65 t1.4 -1.1 t1.99 -0.4 q0.96 0 1.73 0.32 t1.31 0.88 t0.83 1.34 t0.29 1.7 q0 1.22 -0.26 2.06 z M67.02 13.86 l2.64 0 l0 -0.22 q0 -0.74 -0.33 -1.22 t-0.99 -0.48 q-0.64 0 -0.95 0.45 t-0.37 1.47 z"></path></g><g id="SvgjsG1156" featureKey="gqtJpI-0" transform="matrix(0.5173081167728194,0,0,0.5173081167728194,39.77829698169015,201.7294535027238)" fill="#f48599"><path d="M18.576 6.4239999999999995 c0.11864 0 0.23746 0.11897 0.13576 0.30558 l-6.3053 13.152 c-0.050847 0.10169 -0.13559 0.16933 -0.25424 0.16933 l-0.15238 0 c-0.10186 0 -0.20356 -0.067631 -0.23746 -0.16933 l-2.1695 -4.5593 l-2.1695 4.5763 c-0.050847 0.10153 -0.13559 0.16933 -0.25424 0.16933 l-0.15254 0 c-0.10169 0 -0.20339 -0.067797 -0.25424 -0.16933 l-6.3051 -13.169 c-0.084746 -0.16966 0.033898 -0.28831 0.15254 -0.28831 l1.1356 0 c0.15254 0 0.18644 0.10169 0.27119 0.27119 l5.0847 10.898 l1.7627 -3.8305 l-3.3559 -7.0678 c-0.084746 -0.16949 0.033898 -0.28814 0.15271 -0.28814 l1.1525 0 c0.13559 0 0.18644 0.10186 0.25407 0.27119 l2.5254 5.4915 l2.5085 -5.4746 c0.084746 -0.16949 0.13559 -0.27119 0.27119 -0.27119 l1.1525 0 c0.11864 0 0.22034 0.11864 0.13559 0.30508 l-3.339 7.0339 l1.7627 3.8136 l5.0847 -10.898 c0.067797 -0.16933 0.11864 -0.27119 0.25424 -0.27119 l1.1525 0 z M37.05767627118644 20.11864 c3.8305 0 6.9492 -3.0337 6.9492 -6.8981 c0 -3.8475 -3.1186 -6.8983 -6.9492 -6.8983 c-3.8475 0 -6.9661 3.0508 -6.9661 6.8983 c0 3.8644 3.1186 6.8981 6.9661 6.8981 z M37.05767627118644 18.8307 c-3.0847 0 -5.6441 -2.5085 -5.6441 -5.6102 s2.5593 -5.6102 5.6441 -5.6102 c3.0846 0 5.61 2.5085 5.61 5.6102 s-2.5254 5.6102 -5.61 5.6102 z M65.77581355932203 19.76288 c0.084746 0.13559 0.033732 0.23712 -0.11881 0.23712 l-0.88136 0 c-0.27119 0 -0.45763 -0.22017 -0.55932 -0.37271 l-3 -4.2542 l-0.050847 0 l-3.8814 0 l0 4.3898 c0 0.15254 -0.067797 0.23712 -0.23729 0.23712 l-0.88136 0 c-0.15254 0 -0.22034 -0.08458 -0.22034 -0.23712 l0 -13.102 c0 -0.15254 0.067797 -0.22034 0.22034 -0.22034 l5 0 c3.1695 0 4.6273 2.4576 4.6273 4.4746 c0 1.7288 -1.0508 3.7288 -3.2712 4.3051 z M57.28461355932204 7.728999999999999 l0.00016552 6.3727 l3.7797 0 c2.3051 0 3.4066 -1.6102 3.4066 -3.2203 c0 -1.5932 -1.1186 -3.1524 -3.4068 -3.1524 l-3.7797 0 z M87.12181355932204 19.55932 c0.18644 0.18644 0.0673 0.44085 -0.1871 0.44085 l-0.96594 0 c-0.11864 0 -0.18644 -0.033732 -0.28814 -0.13543 l-6.8136 -6.712 l0 6.6271 c0 0.13559 -0.067797 0.22017 -0.20339 0.22017 l-0.91525 0 c-0.13559 0 -0.22017 -0.08458 -0.22017 -0.22017 l0 -12.322 c0 -0.30525 -0.033898 -0.52542 -0.067797 -0.76288 c-0.016949 -0.15254 0.033898 -0.25424 0.16949 -0.25424 l0.77966 0 c0.28814 0 0.45763 0.15254 0.45763 0.42373 l0 6 l6.1697 -6.2881 c0.084746 -0.084746 0.15254 -0.13559 0.27119 -0.13559 l1.0339 0 c0.25424 0 0.32203 0.25424 0.16966 0.4239 l-6.0678 6.1524 z M129.9488813559322 6.4239999999999995 c0.11864 0 0.23746 0.11897 0.13576 0.30558 l-6.3053 13.152 c-0.050847 0.10169 -0.13559 0.16933 -0.25424 0.16933 l-0.15238 0 c-0.10186 0 -0.20356 -0.067631 -0.23746 -0.16933 l-2.1695 -4.5593 l-2.1695 4.5763 c-0.050847 0.10153 -0.13559 0.16933 -0.25424 0.16933 l-0.15254 0 c-0.10169 0 -0.20339 -0.067797 -0.25424 -0.16933 l-6.3051 -13.169 c-0.084746 -0.16966 0.033898 -0.28831 0.15254 -0.28831 l1.1356 0 c0.15254 0 0.18644 0.10169 0.27119 0.27119 l5.0847 10.898 l1.7627 -3.8305 l-3.3559 -7.0678 c-0.084746 -0.16949 0.033898 -0.28814 0.15271 -0.28814 l1.1525 0 c0.13559 0 0.18644 0.10186 0.25407 0.27119 l2.5254 5.4915 l2.5085 -5.4746 c0.084746 -0.16949 0.13559 -0.27119 0.27119 -0.27119 l1.1525 0 c0.11864 0 0.22034 0.11864 0.13559 0.30508 l-3.339 7.0339 l1.7627 3.8136 l5.0847 -10.898 c0.067797 -0.16933 0.11864 -0.27119 0.25424 -0.27119 l1.1525 0 z M142.88815762711863 6.441000000000001 l-0.86441 0 c-0.15254 0 -0.22034 0.067797 -0.22034 0.22034 l0 13.119 c0 0.13559 0.067797 0.22017 0.22034 0.22017 l0.88136 0 c0.11864 0 0.20339 -0.08458 0.20339 -0.22017 l0 -13.119 c0 -0.15254 -0.084746 -0.22034 -0.22034 -0.22034 z M165.45449152542372 6.441000000000001 c0.15254 0 0.22051 0.067797 0.22051 0.22034 l0 0.84746 c0 0.13559 -0.067797 0.22034 -0.22034 0.22034 l-4.3729 0 l0 12.034 c0 0.15254 -0.067797 0.23712 -0.20339 0.23712 l-0.67797 0 c-0.30508 0 -0.45763 -0.18644 -0.45763 -0.47441 l0 -11.797 l-4.3729 0 c-0.15254 0 -0.23729 -0.084746 -0.23729 -0.22034 l0 -0.83051 c0 -0.16949 0.084746 -0.23729 0.23729 -0.23729 l10.085 0 z M188.5793728813559 6.441000000000001 c0.15254 0 0.23729 0.067963 0.23729 0.22051 l0 13.119 c0 0.13559 -0.067797 0.22017 -0.20339 0.22017 l-0.6778 0 c-0.30508 0 -0.44068 -0.18644 -0.44068 -0.45763 l0 -5.5593 l-8.5593 0 l0 5.7797 c0 0.15254 -0.067797 0.23712 -0.22034 0.23712 l-0.86441 0 c-0.16966 0 -0.23746 -0.08458 -0.23746 -0.23712 l0 -13.102 c0 -0.15254 0.067797 -0.22034 0.22034 -0.22034 l0.88136 0 c0.13559 0 0.22034 0.067797 0.22034 0.22034 l0 6 l8.5593 0 l0 -6 c0 -0.15254 0.067797 -0.22034 0.20339 -0.22034 l0.88136 0 z M215.2372905084746 17.729 l0.47441 -0.55932 c0.15238 -0.15254 0.30492 -0.13559 0.44051 -0.033898 c0.32203 0.27119 1.6441 1.7119 3.5254 1.7119 c2.2373 0 3.2203 -1.2203 3.2203 -2.4237 c0 -1.7288 -1.9663 -2.1864 -3.7459 -2.8305 c-2.0169 -0.76271 -3.7458 -1.678 -3.7458 -3.7119 c0 -1.6949 1.2373 -3.5593 4.2712 -3.5593 c2.0847 0 3.5932 1.2542 4 1.6102 c0.13559 0.11864 0.18644 0.27119 0.084912 0.40678 l-0.44068 0.57627 c-0.10169 0.13559 -0.23729 0.16949 -0.38983 0.067797 c-0.33898 -0.25424 -1.5592 -1.3898 -3.2371 -1.3898 c-1.8985 0 -2.9663 1 -2.9663 2.288 c0 1.4915 1.5086 2.0169 3.4917 2.7288 c1.8136 0.67797 4 1.5932 4 3.8305 c0 1.9661 -1.8303 3.6608 -4.5253 3.6608 c-2.4746 0 -4 -1.61 -4.3898 -1.9998 c-0.11864 -0.11864 -0.22034 -0.22034 -0.067797 -0.37271 z M245.73584745762713 6.441000000000001 c0.15254 0 0.22051 0.067797 0.22051 0.22034 l0 0.84746 c0 0.13559 -0.067797 0.22034 -0.22034 0.22034 l-4.3729 0 l0 12.034 c0 0.15254 -0.067797 0.23712 -0.20339 0.23712 l-0.67797 0 c-0.30508 0 -0.45763 -0.18644 -0.45763 -0.47441 l0 -11.797 l-4.3729 0 c-0.15254 0 -0.23729 -0.084746 -0.23729 -0.22034 l0 -0.83051 c0 -0.16949 0.084746 -0.23729 0.23729 -0.23729 l10.085 0 z M268.9457288135593 6.441000000000001 c0.08458 0 0.15188 0.10169 0.084083 0.20339 l-5.4064 7.7458 l0 5.3729 c0 0.15254 -0.067797 0.23712 -0.20339 0.23712 l-0.67797 0 c-0.28814 0 -0.44068 -0.18644 -0.44068 -0.47441 l0 -5.1356 l-5.4068 -7.7458 c-0.050847 -0.10169 0 -0.20339 0.10186 -0.20339 l1.1864 0 c0.10169 0 0.15254 0.067797 0.20339 0.16949 l4.5763 6.4746 l4.5764 -6.4746 c0.067797 -0.10169 0.10169 -0.16949 0.20339 -0.16949 l1.2034 0 z M288.47792881355934 18.712 c0.13559 0 0.20339 0.084912 0.20339 0.23729 l0 0.83051 c0 0.15254 -0.067797 0.22017 -0.20339 0.22017 l-7.9492 0 c-0.15254 0 -0.20339 -0.10153 -0.20339 -0.22017 l0 -13.119 c0 -0.15254 0.067797 -0.22034 0.22034 -0.22034 l0.89831 0 c0.13559 0 0.22034 0.067797 0.22034 0.22034 l0 12.051 l6.8136 0 z M309.4845440677966 7.728999999999999 l-7.3556 0.00049656 l0 4.9659 l4.5424 0 c0.15254 0 0.23729 0.067797 0.23729 0.23729 l0 0.81339 c0 0.15254 -0.084746 0.22034 -0.23729 0.22034 l-4.5424 0 l0 4.7458 l7.3559 0 c0.15254 0 0.23712 0.084746 0.23712 0.23712 l0 0.81356 c0 0.16949 -0.067797 0.23712 -0.23729 0.23712 l-8.4746 0 c-0.15254 0 -0.22034 -0.08458 -0.22034 -0.22017 l0 -13.119 c0 -0.15254 0.084746 -0.22034 0.22034 -0.22034 l8.4746 0 c0.15254 0 0.23712 0.084746 0.23712 0.22034 l0 0.84746 c0 0.13559 -0.067797 0.22034 -0.23729 0.22034 z"></path></g>
			</g>
		</svg>
	