<svg version="1.2" xmlns="http://www.w3.org/2000/svg" viewBox="0 0 1600 1600" width="1600" height="1600">
	<title>Color logo with background-svg</title>
	<style>
		.s0 { fill: #15112b } 
		.s1 { fill: #f48599 } 
		.s2 { fill: #ffffff } 
	</style>
	<ellipse id="Shape 1" class="s0" cx="800" cy="800.5" rx="763" ry="755.5"/>
	<g id="Layer">
		<g id="SvgjsG1154">
			<g id="Layer">
				<g id="Layer">
					<path id="Layer" fill-rule="evenodd" class="s1" d="m806.3 1575.5c-430.8 0-781.3-350.5-781.3-781.3 0-430.7 350.5-781.2 781.3-781.2 430.7 0 781.2 350.5 781.2 781.3 0 430.7-350.5 781.2-781.3 781.2zm0-1504.6c-398.8 0-723.3 324.5-723.3 723.3 0 398.9 324.5 723.4 723.3 723.4 398.9 0 723.4-324.5 723.4-723.4 0-398.8-324.5-723.3-723.4-723.3z"/>
					<path id="Layer" fill-rule="evenodd" class="s1" d="m543.8 1172.4c-31-0.1-60.1-12-81.8-33.9-21.8-21.7-33.8-50.8-33.8-81.8 0-31 12-60 33.8-81.8l524.9-524.9c21.8-21.9 50.8-33.9 81.8-33.9 31 0 60.1 12 81.8 33.9 21.8 21.7 33.8 50.8 33.8 81.8 0 31-12 60-33.8 81.8l-524.9 524.9c-21.8 21.9-50.8 33.9-81.8 33.9zm524.9-698.4c-15.5 0-30 6-40.9 16.9l-524.9 524.9c-10.9 10.9-16.9 25.4-16.9 40.9 0 15.5 6 30.1 16.9 40.9 21.8 21.8 60.1 21.7 81.8 0.1l524.9-525c10.9-10.9 16.9-25.4 16.9-40.9 0-15.5-6-30.1-16.9-40.9-10.8-10.9-25.4-16.9-40.9-16.9z"/>
				</g>
			</g>
		</g>
		<g id="SvgjsG1155">
			<path id="Layer" fill-rule="evenodd" class="s2" d="m-700 2387.9q2.5-27.4 17-54.8 14.6-27.4 34.5-44.8 88.9 54 168.7 54 34.9 0 51.1-15.8 16.2-15.8 16.2-39.1 0-39-52.4-61.5l-98-41.5q-57.3-25.8-88.1-61.9-30.7-36.1-30.7-91.8 0-38.2 15.3-69.8 15.4-31.6 43.2-54.8 27.9-23.3 66.1-36.2 38.2-12.8 84.7-12.8 93.1 0 187.8 47.3-4.2 64-44.9 99.7-84.7-40.7-149.5-40.7-33.2 0-49.9 15-16.6 14.9-16.6 34 0 32.4 49 52.4l99.7 42.3q63.2 26.6 94.3 68.2 31.2 41.5 31.2 96.3 0 39.1-14.1 71.5-14.2 32.4-42 56.1-27.8 23.6-69.4 36.9-41.5 13.3-97.2 13.3-108 0-206-61.5zm662.1-45.6h22.5q9.9 27.4 9.9 54.8 0 27.4-2.4 35.7-49.9 8.3-88.9 8.3-56.5 0-80.2-27.8-23.7-27.8-23.7-87.7v-494.3l5-5.8h50.7q39 0 54.8 17.4 15.8 17.5 15.8 60.7v399.6q0 39.1 36.5 39.1zm450.3 34.8q-4.1 17.5-15.8 37.4-11.6 20-24 29.1-58.2-1.7-89.8-44-54 49.8-117.1 49.8-32.4 0-56.5-10.4-24.1-10.3-40.7-27.8-16.6-17.4-24.9-40.3-8.3-22.8-8.3-47.8 0-35.7 12.8-62.7 12.9-27 35.3-44.8 22.5-17.9 52.4-27 29.9-9.2 64-9.2 19.1 0 33.6 0.4 14.5 0.4 25.3 1.3v-15.8q0-52.3-54-52.3-34.9 0-122.1 26.5-24.9-29-31.6-90.5 20-7.5 44.5-14.1 24.5-6.7 50.2-11.7 25.8-5 50.7-7.9 25-2.9 44.9-2.9 29.1 0 56.1 8.3 27 8.3 47.3 25.4 20.4 17 32.4 44 12.1 27 12.1 64.4v168.6q0 38.3 23.2 54zm-250.9-62.3q0 39.1 44.9 39.1 23.3 0 52.3-24.1v-66.5q-16.6-0.8-27.8-1.2-11.2-0.4-17-0.4-52.4 0-52.4 53.1zm291.6 93.9q0.9-21.6 11.3-47.3 10.3-25.8 24.5-40.7 66.4 34.8 115.4 34.8 23.3 0 35.8-7.8 12.4-7.9 12.4-21.2 0-25-38.2-37.4l-45.7-17.5q-103.8-38.2-103.8-124.6 0-63.1 43.6-100.1 43.6-37 117.5-37 36.6 0 80.6 10.4 44.1 10.4 72.3 24.5 1.7 23.3-9.1 51.1-10.8 27.9-26.6 39.5-69.8-31.6-116.3-31.6-16.6 0-25.4 7.5-8.7 7.5-8.7 19.1 0 19.9 31.6 31.6l51.5 18.2q110.5 39.1 110.5 133.8 0 62.3-45.7 98.9-45.7 36.5-130.4 36.5-84.8 0-157.1-40.7zm755.2-245.9v170.3q0 55.7 20.8 82.3-31.6 28.2-76.4 28.2-43.2 0-59-19.9-15.8-20-15.8-60.7v-176.9q0-28.3-7.5-41.6-7.5-13.3-29.1-13.3-12.4 0-28.2 6.7-15.8 6.6-32.4 21.6v277.5q-27.4 4.9-63.1 4.9-35.8 0-63.2-4.9v-605.7l5.8-5.8h49.9q39.9 0 55.2 17.4 15.4 17.5 15.4 60.7v157q55.7-45.7 111.3-45.7 55.7 0 86 40.3 30.3 40.3 30.3 107.6zm246.8-44.9v319.1q-14.1 2.5-30.8 3.7-16.6 1.2-34 1.2-17.5 0-34.5-1.2-17-1.2-31.2-3.7v-275q0-48.2-39-48.2h-12.5q-4.9-15.8-4.9-44 0-27.5 4.9-46.6 21.6-1.6 39.9-2.9 18.3-1.2 33.2-1.2h18.3q42.4 0 66.5 26.6 24.1 26.5 24.1 72.2zm-145.4-262.5q24.1-13.3 62.3-13.3 39 0 60.7 13.3 9.9 22.4 9.9 48.2 0 25.7-9.9 48.2-24.1 12.4-63.2 12.4-39 0-59.8-12.4-10-22.5-10-48.2 0-25.8 10-48.2zm566.6 416.2h-216.8q1.6 37.4 19.1 58.2 17.4 20.8 57.3 20.8 19.9 0 46.1-5.9 26.2-5.8 60.2-19.1 27.4 28.3 34.1 76.5-66.5 47.3-162.8 47.3-52.4 0-87.7-16.6-35.3-16.6-57.3-46.5-22-29.9-31.2-70.6-9.1-40.7-9.1-88.9 0-46.6 11.2-86 11.2-39.5 34.1-68.6 22.8-29 58.1-45.6 35.3-16.7 82.7-16.7 39.9 0 71.9 13.3 31.9 13.3 54.4 36.6 22.4 23.2 34.4 55.6 12.1 32.4 12.1 70.7 0 50.6-10.8 85.5zm-217.7-89.7h109.7v-9.1q0-30.8-13.7-50.7-13.7-19.9-41.1-19.9-26.6 0-39.5 18.6-12.9 18.7-15.4 61.1zm630.6 89.7h-216.8q1.6 37.4 19.1 58.2 17.4 20.8 57.3 20.8 19.9 0 46.1-5.9 26.2-5.8 60.2-19.1 27.5 28.3 34.1 76.5-66.5 47.3-162.8 47.3-52.4 0-87.7-16.6-35.3-16.6-57.3-46.5-22-29.9-31.2-70.6-9.1-40.7-9.1-88.9 0-46.6 11.2-86 11.2-39.5 34.1-68.6 22.8-29 58.1-45.6 35.3-16.7 82.7-16.7 39.9 0 71.9 13.3 31.9 13.3 54.4 36.6 22.4 23.2 34.5 55.6 12 32.4 12 70.7 0 50.6-10.8 85.5zm-217.7-89.7h109.7v-9.1q0-30.8-13.7-50.7-13.7-19.9-41.1-19.9-26.6 0-39.5 18.6-12.9 18.7-15.4 61.1z"/>
		</g>
		<g id="SvgjsG1156">
			<path id="Layer" fill-rule="evenodd" class="s1" d="m-82.7 2576.2c0.8 0 1.6 0.7 0.9 1.9l-40.7 85.1c-0.4 0.6-0.9 1.1-1.7 1.1h-1c-0.6 0-1.3-0.5-1.5-1.1l-14-29.5-14.1 29.6c-0.3 0.6-0.8 1.1-1.6 1.1h-1c-0.7 0-1.3-0.5-1.6-1.1l-40.8-85.2c-0.6-1.1 0.2-1.8 1-1.8h7.3c1 0 1.2 0.6 1.8 1.7l32.8 70.5 11.4-24.8-21.7-45.7c-0.5-1.1 0.3-1.8 1-1.8h7.5c0.9 0 1.2 0.6 1.6 1.7l16.4 35.5 16.2-35.4c0.5-1.1 0.9-1.7 1.7-1.7h7.5c0.8 0 1.4 0.7 0.9 1.9l-21.6 45.5 11.4 24.7 32.8-70.5c0.5-1.1 0.8-1.7 1.7-1.7 0 0 7.4 0 7.4 0zm74.5 43.9c0-24.9 20.2-44.6 45.1-44.6 24.7 0 44.9 19.7 44.9 44.6 0 25-20.2 44.6-44.9 44.6-24.9 0-45.1-19.6-45.1-44.6zm81.3 0c0-20.1-16.3-36.3-36.2-36.3-20 0-36.5 16.2-36.5 36.3 0 20.1 16.5 36.3 36.5 36.3 19.9 0 36.2-16.2 36.2-36.3zm149.5 42.3c0.5 0.9 0.2 1.5-0.8 1.5h-5.7c-1.8 0-3-1.4-3.6-2.4l-19.4-27.5h-25.5v28.4c0 1-0.4 1.5-1.5 1.5h-5.7c-1 0-1.4-0.5-1.4-1.5v-84.7c0-1 0.4-1.4 1.4-1.4h32.3c20.5 0 30 15.9 30 28.9 0 11.2-6.8 24.1-21.2 27.8zm-54.9-77.8v41.2h24.4c15 0 22.1-10.4 22.1-20.8 0-10.3-7.3-20.4-22.1-20.4 0 0-24.4 0-24.4 0zm192.9 76.5c1.3 1.2 0.5 2.9-1.2 2.9h-6.2c-0.8 0-1.2-0.2-1.9-0.9l-44-43.4v42.8c0 0.9-0.5 1.5-1.3 1.5h-6c-0.8 0-1.4-0.6-1.4-1.5v-79.6c0-2-0.2-3.4-0.4-5-0.1-1 0.2-1.6 1.1-1.6h5c1.9 0 3 1 3 2.7v38.8l39.9-40.6c0.5-0.6 1-0.9 1.7-0.9h6.7c1.6 0 2.1 1.6 1.1 2.7l-39.2 39.8zm276.9-84.9c0.8 0 1.5 0.7 0.9 2l-40.8 85c-0.3 0.7-0.9 1.1-1.6 1.1h-1c-0.7 0-1.3-0.4-1.6-1.1l-14-29.5-14 29.6c-0.3 0.7-0.9 1.1-1.7 1.1h-0.9c-0.7 0-1.4-0.4-1.7-1.1l-40.8-85.1c-0.5-1.1 0.3-1.9 1-1.9h7.4c1 0 1.2 0.6 1.7 1.7l32.9 70.5 11.4-24.8-21.7-45.7c-0.6-1.1 0.2-1.8 1-1.8h7.4c0.9 0 1.2 0.6 1.7 1.7l16.3 35.5 16.2-35.4c0.6-1.1 0.9-1.7 1.8-1.7h7.4c0.8 0 1.5 0.8 0.9 2l-21.6 45.4 11.4 24.7 32.9-70.5c0.4-1.1 0.8-1.7 1.6-1.7 0 0 7.5 0 7.5 0zm85.1 1.5v84.8c0 0.9-0.6 1.5-1.3 1.5h-5.7c-1 0-1.4-0.6-1.4-1.5v-84.8c0-1 0.4-1.4 1.4-1.4h5.6c0.8 0 1.4 0.4 1.4 1.4zm144.5-1.4c1 0 1.4 0.4 1.4 1.4v5.5c0 0.9-0.4 1.4-1.4 1.4h-28.3v77.8c0 1-0.4 1.6-1.3 1.6h-4.4c-2 0-2.9-1.2-2.9-3.1v-76.3h-28.3c-1 0-1.6-0.5-1.6-1.4v-5.4c0-1.1 0.6-1.5 1.6-1.5 0 0 65.2 0 65.2 0zm149.5 0c1 0 1.6 0.4 1.6 1.4v84.8c0 0.9-0.5 1.5-1.4 1.5h-4.3c-2 0-2.9-1.2-2.9-3v-35.9h-55.3v37.3c0 1-0.5 1.6-1.5 1.6h-5.6c-1 0-1.5-0.6-1.5-1.6v-84.7c0-1 0.5-1.4 1.4-1.4h5.7c0.9 0 1.5 0.4 1.5 1.4v38.8h55.3v-38.8c0-1 0.4-1.4 1.3-1.4 0 0 5.7 0 5.7 0zm172.4 73l3.1-3.6c1-1 1.9-0.9 2.8-0.3 2.1 1.8 10.7 11.1 22.8 11.1 14.5 0 20.8-7.9 20.8-15.7 0-11.1-12.7-14.1-24.2-18.3-13-4.9-24.2-10.8-24.2-24 0-10.9 8-23 27.6-23 13.5 0 23.2 8.1 25.9 10.4 0.9 0.8 1.2 1.8 0.5 2.7l-2.8 3.7c-0.7 0.9-1.6 1.1-2.5 0.4-2.2-1.6-10.1-9-21-9-12.2 0-19.2 6.5-19.2 14.8 0 9.7 9.8 13.1 22.6 17.7 11.8 4.4 25.9 10.3 25.9 24.8 0 12.7-11.8 23.6-29.3 23.6-16 0-25.8-10.4-28.4-12.9-0.7-0.8-1.4-1.4-0.4-2.4zm197.2-73c1 0 1.4 0.4 1.4 1.4v5.5c0 0.9-0.4 1.4-1.4 1.4h-28.3v77.8c0 1-0.4 1.6-1.3 1.6h-4.4c-1.9 0-2.9-1.2-2.9-3.1v-76.3h-28.3c-1 0-1.5-0.5-1.5-1.4v-5.4c0-1.1 0.5-1.5 1.5-1.5 0 0 65.2 0 65.2 0zm150.1 0c0.5 0 1 0.6 0.5 1.3l-34.9 50.1v34.7c0 1-0.5 1.6-1.3 1.6h-4.4c-1.9 0-2.9-1.2-2.9-3.1v-33.2l-34.9-50.1c-0.4-0.7 0-1.3 0.6-1.3h7.7c0.7 0 1 0.4 1.3 1.1l29.6 41.9 29.6-41.9c0.4-0.7 0.7-1.1 1.3-1.1 0 0 7.8 0 7.8 0zm126.3 79.3c0.9 0 1.3 0.6 1.3 1.6v5.3c0 1-0.4 1.5-1.3 1.5h-51.4c-1 0-1.3-0.7-1.3-1.5v-84.8c0-1 0.4-1.4 1.4-1.4h5.8c0.9 0 1.4 0.4 1.4 1.4v77.9c0 0 44.1 0 44.1 0zm135.8-71h-47.5v32.1h29.3c1 0 1.6 0.5 1.6 1.6v5.2c0 1-0.6 1.5-1.6 1.5h-29.3v30.6h47.5c1 0 1.6 0.6 1.6 1.6v5.2c0 1.1-0.5 1.6-1.6 1.6h-54.8c-0.9 0-1.4-0.6-1.4-1.5v-84.8c0-1 0.6-1.4 1.4-1.4h54.8c1 0 1.6 0.5 1.6 1.4v5.5c0 0.9-0.5 1.4-1.6 1.4z"/>
		</g>
	</g>
</svg>